<?xml version="1.0" encoding="utf-8"?>
<!-- Generator: Adobe Illustrator 19.2.1, SVG Export Plug-In . SVG Version: 6.00 Build 0)  -->
<!DOCTYPE svg PUBLIC "-//W3C//DTD SVG 1.1//EN" "http://www.w3.org/Graphics/SVG/1.1/DTD/svg11.dtd">
<svg version="1.1" id="Layer_1" xmlns="http://www.w3.org/2000/svg" xmlns:xlink="http://www.w3.org/1999/xlink" x="0px" y="0px"
	 viewBox="0 0 361.2 95.5" style="enable-background:new 0 0 361.2 95.5;" xml:space="preserve">
<style type="text/css">
	.st0{fill:#FFFFFF;}
</style>
<g>
	
		<image style="overflow:visible;opacity:0.75;" width="375" height="99" xlink:href="9FC626B537C72947.png"  transform="matrix(1 0 0 1 -7 -1.5)">
	</image>
	<g>
		<g>
			<g>
				<g>
					<path class="st0" d="M128,27.4l-3.8-3.4h-19l-3.8,3.4h-5l16-13.6h4.7L133,27.4H128z M114.8,15.8l-7.7,6.7h15.3L114.8,15.8z"/>
				</g>
			</g>
			<g>
				<g>
					<path class="st0" d="M39.9,27.4L36.1,24h-19l-3.8,3.4h-5l16-13.6H29l15.9,13.6H39.9z M26.6,15.8l-7.7,6.7h15.3L26.6,15.8z"/>
				</g>
			</g>
			<g>
				<g>
					<path class="st0" d="M260.3,27.4l-3.8-3.4h-19l-3.8,3.4h-5l16-13.6h4.7l15.9,13.6H260.3z M247.1,15.8l-7.7,6.7h15.3L247.1,15.8
						z"/>
				</g>
			</g>
			<g>
				<g>
					<path class="st0" d="M172.3,27.4l-27.1-11.3l0.1,11.3h-4.7V13.8h5L172.5,25l-0.1-11.2h4.7v13.6
						C177.1,27.4,172.3,27.4,172.3,27.4z"/>
				</g>
			</g>
			<g>
				<g>
					<path class="st0" d="M215.4,25.8c-4.8,1.6-10.9,1.6-16.8,1.6h-14V13.8h17.5c1,0,1.9,0,2.9,0c1.6,0,5.4,0.1,9.1,1.1
						c4.9,1.3,7.2,3.4,7.2,5.6C221.3,22.5,219.4,24.5,215.4,25.8z M207.5,15.6c-1.7-0.2-3.7-0.2-5.4-0.2h-12.4v10.4h10.2
						c0.9,0,1.8,0,2.7,0c1.5,0,5.8-0.1,9.4-1.3c4-1.4,4.2-3.4,4.2-4C216.2,18.2,213.3,16.2,207.5,15.6z"/>
				</g>
			</g>
			<g>
				<g>
					<path class="st0" d="M84.9,27.4l0.2-11.7L72.7,27.4h-4L56.3,15.8l0.2,11.7h-4V13.8h5.9l12.4,11.5l12.4-11.5H89v13.6H84.9z"/>
				</g>
			</g>
			<g>
				<g>
					<path class="st0" d="M149,73.9c-4.3,6.1-12.5,7-14.3,7.2c-1.1,0.1-3.9,0.5-7,0.5c-1.4,0-7.4-0.1-12.5-1.4
						c-1.1-0.3-2.8-0.7-5.2-1.7c-2.5-1.1-4.3-2.3-5.1-3c-2.6-2-3.8-3.8-4.5-4.9l6.4-2.6c0.3,0.4,0.6,0.8,1,1.2c1,1,3.3,2.8,6.7,4.2
						c5.6,2.3,12.2,2.3,13.8,2.3c1.2,0,8.5,0.2,13.2-3.3c2.9-2.2,3.3-5.2,3.3-6.5c0-2.8-1.6-4.9-4.1-6c-3.6-1.6-12-2.1-15.8-2.4
						c-9.3-0.8-13.8-1.2-17.4-4.5c-3.3-3-3.4-6.5-3.4-8.1c0-6.8,4.7-9.9,6.7-11c2.9-1.6,8.2-3.2,16-3.2c9.6,0,15.4,2.3,18.9,4.6
						c0.8,0.5,1.5,1,2.2,1.7c1.6,1.3,2.8,3,3.2,3.5l-6.3,2.5c-0.3-0.3-1.6-1.6-3-2.5c-2.7-1.9-7.3-4.1-14.9-4.1
						c-5,0-8.8,0.9-10.6,1.6c-4.2,1.6-5.4,4.5-5.4,6.5c0,1,0.3,2.1,0.8,3c1.7,2.8,5.2,3,8,3.4c5.4,0.7,10.7,1,16.1,1.6
						c7.5,0.9,10.9,2.8,13.3,5.7c2.4,3.1,2.5,6.2,2.5,7.6C151.5,69.9,150,72.6,149,73.9z"/>
					<path class="st0" d="M203.5,80.4v-23h-37.2v23h-7V31.8h6.9v19.8h37.2V31.8h7v48.6C210.4,80.4,203.5,80.4,203.5,80.4z"/>
					<path class="st0" d="M270.5,73.3c-3.4,3.5-10.8,8.4-23,8.4c-1.2,0-4.1-0.1-7.4-0.6c-3.3-0.5-13.1-2.3-18.8-11.4
						c-3.3-5.4-3.5-10.9-3.5-13.1c0-5.6,1.4-11.1,4.9-15.5c0.7-0.9,1.6-1.9,3.5-3.5c3.3-2.8,10-7,20.9-7c2.2,0,8.8,0.2,15.1,3.1
						c4,1.9,7.8,4.9,10.4,8.5c4,5.8,4.3,12.2,4.3,14.5C276.9,59.6,276.5,67.2,270.5,73.3z M268.1,47.7
						c-5.2-11.2-19.1-11.1-21.8-11.1c-2.1,0.1-10.8,0.6-16.4,6.2c-1,1-2.9,3.1-4.1,6.5c-0.8,2.2-1.1,4.7-1.1,7.1
						c0,1.8,0.2,7,3.5,11.5c0.7,0.9,1.7,2.1,3.9,3.6c2.8,2,7.6,4.2,15.6,4.2c1.3,0,4.5,0,8.2-1c6.8-1.8,11.8-6.3,13.4-13.2
						c0.2-1,0.6-3,0.6-5.4C269.9,52,268.8,49.1,268.1,47.7z"/>
					<path class="st0" d="M336.8,80.4h-7.6l-14.3-39.8l-14.4,39.8h-7.8l-15.8-48.6h7.4L297,72.7l15-40.9h6.1L333,72.5l12.7-40.7h7.3
						L336.8,80.4z"/>
				</g>
			</g>
		</g>
	</g>
</g>
</svg>
